<?xml version="1.0" encoding="utf-8"?>
<!-- Generator: Adobe Illustrator 27.6.1, SVG Export Plug-In . SVG Version: 6.00 Build 0)  -->
<svg version="1.1" id="Layer_1" xmlns="http://www.w3.org/2000/svg" xmlns:xlink="http://www.w3.org/1999/xlink" x="0px" y="0px"
	 viewBox="0 0 25.2 25.17" style="enable-background:new 0 0 25.2 25.17;" xml:space="preserve">
<style type="text/css">
	.st0{fill:#15C2E9;}
	.st1{fill:#FFFFFF;}
	.st2{fill:#F7F9FB;}
	.st3{fill:#3B426F;}
	.st4{fill:#8B8EA9;}
</style>
<g>
	<path class="st3" d="M16.07,6.74c0.13,0,0.26,0.02,0.38,0.05c0.31,0.08,0.41,0.37,0.19,0.61c-0.24,0.25-0.49,0.5-0.74,0.74
		c-0.08,0.07-0.13,0.14-0.07,0.25c0.01,0.02,0.01,0.06,0.02,0.09c0.2,0.75,0.22,0.77,1,0.89c0.09,0.01,0.13-0.02,0.17-0.07
		c0.24-0.24,0.49-0.48,0.73-0.72c0.12-0.12,0.25-0.18,0.41-0.14c0.16,0.04,0.21,0.17,0.25,0.32c0.16,0.72-0.22,1.54-0.93,1.97
		c-0.49,0.3-1.03,0.41-1.59,0.29c-0.18-0.04-0.26,0.02-0.37,0.13c-1.76,1.77-3.53,3.53-5.29,5.3c-0.44,0.44-0.87,0.89-1.32,1.32
		c-0.55,0.53-1.43,0.36-1.71-0.34c-0.17-0.45-0.06-0.84,0.28-1.18c1.19-1.19,2.38-2.38,3.58-3.57c1.01-1.01,2.02-2.02,3.03-3.03
		c0.09-0.09,0.13-0.16,0.1-0.31c-0.26-1.15,0.47-2.3,1.61-2.56C15.88,6.75,15.98,6.75,16.07,6.74z"/>
	<path class="st4" d="M18.43,17.4c-0.02,0.42-0.21,0.74-0.59,0.92c-0.37,0.17-0.76,0.16-1.06-0.13c-0.6-0.56-1.18-1.16-1.77-1.74
		c-0.08-0.08-0.05-0.12,0.01-0.18c0.42-0.42,0.84-0.83,1.26-1.25c0.08-0.08,0.13-0.09,0.22,0c0.55,0.56,1.11,1.1,1.65,1.66
		C18.35,16.87,18.44,17.11,18.43,17.4z"/>
	<path class="st4" d="M9.19,8.15c-0.1,0.39,0.1,0.65,0.37,0.91c0.66,0.63,1.29,1.29,1.94,1.92c0.12,0.11,0.11,0.17,0,0.28
		c-0.35,0.34-0.35,0.35-0.69,0.01c-0.65-0.65-1.31-1.31-1.96-1.97c-0.1-0.1-0.2-0.14-0.34-0.14c-0.23,0.01-0.47,0-0.71,0
		c-0.19,0-0.31-0.07-0.4-0.24C7.22,8.54,7.02,8.16,6.82,7.77C6.73,7.59,6.76,7.44,6.9,7.3c0.14-0.15,0.29-0.29,0.43-0.43
		C7.47,6.73,7.62,6.71,7.79,6.8c0.4,0.2,0.8,0.4,1.2,0.6c0.14,0.07,0.21,0.17,0.21,0.32C9.19,7.86,9.19,8.01,9.19,8.15z"/>
	<path class="st4" d="M15.57,13.73c0-0.01,0.01,0.01,0,0.02c-0.18,0.27,0.04,0.4,0.2,0.54c0.12,0.11,0.11,0.18,0,0.29
		c-0.4,0.39-0.8,0.79-1.19,1.19c-0.11,0.11-0.18,0.11-0.27-0.01c-0.04-0.06-0.11-0.11-0.16-0.16c-0.08-0.1-0.15-0.15-0.3-0.06
		c-0.15,0.08-0.31,0.03-0.42-0.12c-0.1-0.15-0.08-0.29,0.03-0.42c0.13-0.14,0.26-0.28,0.4-0.4c0.1-0.09,0.1-0.15,0-0.25
		c-0.3-0.29-0.28-0.28-0.01-0.59c0.16-0.18,0.25-0.17,0.4,0c0.21,0.23,0.22,0.23,0.43,0.01c0.11-0.11,0.21-0.22,0.33-0.32
		c0.11-0.09,0.23-0.11,0.36-0.04C15.51,13.46,15.57,13.56,15.57,13.73z"/>
</g>
</svg>
