<?xml version="1.0" encoding="utf-8"?>
<!-- Generator: Adobe Illustrator 27.6.1, SVG Export Plug-In . SVG Version: 6.00 Build 0)  -->
<svg version="1.1" id="Layer_1" xmlns="http://www.w3.org/2000/svg" xmlns:xlink="http://www.w3.org/1999/xlink" x="0px" y="0px"
	 viewBox="0 0 25.2 25.17" style="enable-background:new 0 0 25.2 25.17;" xml:space="preserve">
<style type="text/css">
	.st0{fill:#15C2E9;}
	.st1{fill:#F7F9FB;}
</style>
<path class="st0" d="M18.74,25.17H6.51c-3.57,0-6.47-2.89-6.47-6.47V6.47C0.04,2.89,2.93,0,6.51,0h12.23c3.57,0,6.47,2.89,6.47,6.47
	V18.7C25.2,22.27,22.31,25.17,18.74,25.17z"/>
<g>
	<path class="st1" d="M10.9,10.13H6.31c-0.64,0-1.15-0.52-1.15-1.15V6.29c0-0.64,0.52-1.15,1.15-1.15h4.59
		c0.64,0,1.15,0.52,1.15,1.15v2.68C12.06,9.61,11.54,10.13,10.9,10.13z"/>
	<path class="st1" d="M10.9,20.03H6.31c-0.64,0-1.15-0.52-1.15-1.15v-6.35c0-0.64,0.52-1.15,1.15-1.15h4.59
		c0.64,0,1.15,0.52,1.15,1.15v6.35C12.06,19.51,11.54,20.03,10.9,20.03z"/>
	<path class="st1" d="M18.93,13.89h-4.59c-0.64,0-1.15-0.52-1.15-1.15V6.29c0-0.64,0.52-1.15,1.15-1.15h4.59
		c0.64,0,1.15,0.52,1.15,1.15v6.44C20.09,13.37,19.57,13.89,18.93,13.89z"/>
	<path class="st1" d="M18.93,20.03h-4.59c-0.64,0-1.15-0.52-1.15-1.15v-2.7c0-0.64,0.52-1.15,1.15-1.15h4.59
		c0.64,0,1.15,0.52,1.15,1.15v2.7C20.09,19.51,19.57,20.03,18.93,20.03z"/>
</g>
</svg>
