<?xml version="1.0" encoding="utf-8"?>
<!-- Generator: Adobe Illustrator 27.6.1, SVG Export Plug-In . SVG Version: 6.00 Build 0)  -->
<svg version="1.1" id="Layer_1" xmlns="http://www.w3.org/2000/svg" xmlns:xlink="http://www.w3.org/1999/xlink" x="0px" y="0px"
	 viewBox="0 0 186.45 109.89" style="enable-background:new 0 0 186.45 109.89;" xml:space="preserve">
<style type="text/css">
	.st0{fill:#010101;}
	.st1{fill:#E01F26;}
	.st2{fill:#F6D927;}
	.st3{fill:#F5D728;}
	.st4{fill:#CA2027;}
	.st5{fill:#F1F7FC;}
	.st6{fill:none;}
</style>
<rect y="0.94" class="st0" width="186.45" height="36.3"/>
<rect y="37.25" class="st1" width="186.45" height="36.32"/>
<rect y="73.57" class="st2" width="186.45" height="36.32"/>
<path class="st3" d="M67.42,26.73v43.61c0,16.34,21.89,14.37,25.8,20.89c3.91-6.52,25.82-4.55,25.82-20.89V26.73H67.42z"/>
<path class="st0" d="M93.22,91.55l-0.14-0.24c-1.39-2.3-5.07-3.52-9.33-4.94c-7.34-2.43-16.51-5.49-16.51-16.03V26.57h51.94v43.76
	c0,10.54-9.15,13.6-16.51,16.03c-4.26,1.42-7.94,2.64-9.32,4.94L93.22,91.55L93.22,91.55z M67.57,26.89v43.44
	c0,10.3,8.66,13.19,16.3,15.73c4.18,1.4,7.81,2.6,9.35,4.87c1.53-2.27,5.17-3.47,9.36-4.87c7.62-2.53,16.29-5.42,16.29-15.73V26.89
	H67.57L67.57,26.89z"/>
<path class="st0" d="M91.53,33.01c0.26,1.28-0.25,4.41-0.91,5.48c-0.65,1.03-2.35,2.99-2.47,4.95c-0.66,9.81,3,24.03,5.08,34.21
	c2.09-10.18,5.73-24.4,5.08-34.21c-0.64-9.78-1.95-12.4-1.95-12.4L91.53,33.01z"/>
<path class="st4" d="M92.04,34.44c-2.42-0.18-4.46-0.67-6.12-1.43c0.69,0.86,2.27,1.55,4.7,2.08L92.04,34.44z"/>
<path class="st0" d="M90.64,35.01c-2.48-0.37-4.07-1.08-4.78-1.96c1.74,0.64,3.79,1.13,6.19,1.29l-0.01,0.17
	c-2.44-0.18-4.5-0.66-6.15-1.46C86.67,33.79,88.23,34.5,90.64,35.01L90.64,35.01z"/>
<path class="st4" d="M91.27,29.07c-3.91-1.96-6.27,0.27-3.66,3.79c0.27-0.65,2.73-1.58,3.91,1.58c-0.6,0.34-2.05,0.38-4.3,0.12
	c1.17,0.9,4.69,1.04,5.33,0.65c0.66-0.39-1.17-3.65-1.17-3.65L91.27,29.07z"/>
<path class="st0" d="M91.08,35.5c-1.33,0-3.12-0.26-3.91-0.88c2.3,0.12,3.73,0.09,4.31-0.26c-0.74-1.75-1.85-2.04-2.46-2.05
	c0,0,0,0-0.01,0c-0.7,0-1.23,0.34-1.33,0.6c-1.32-1.58-1.58-3.07-0.85-3.93c0.8-0.96,2.51-0.95,4.46,0.04l-0.07,0.14
	c-1.85-0.92-3.53-0.97-4.26-0.08c-0.68,0.8-0.42,2.22,0.71,3.73c-0.01-0.32,0.66-0.66,1.36-0.66c0.64,0.01,1.83,0.3,2.57,2.26
	c-0.67,0.46-2.09,0.5-4.39,0.24c1.19,0.74,4.68,0.89,5.31,0.5c0.43-0.26-0.52-2.29-1.2-3.54c0.45,0.48,1.97,3.28,1.29,3.7
	C92.38,35.42,91.79,35.5,91.08,35.5L91.08,35.5z"/>
<path class="st0" d="M96.1,31.81c0.66-0.13,1.69-0.52,2.47-1.28c-1.44,0-4.05-0.8-5.09-1.31c-1.04-0.53-2.86-1.7-2.86,0.51
	c0,2.23,2.35,3.92,1.95,5.74L96.1,31.81z"/>
<path class="st5" d="M92.84,30.38c0,0-1.31-0.65-1.57-0.9c-0.25-0.26-0.66,1.43,0.52,1.96C91.96,30.99,92.31,30.65,92.84,30.38
	L92.84,30.38z"/>
<path class="st0" d="M91.92,29.59c-0.62,0.18-0.74,0.65-0.4,1.43c0.09-0.6,0.51-0.99,1.31-1.17L91.92,29.59z"/>
<path class="st0" d="M98.95,47.35v15.41l17.46,14.36V38.87c0-2.96-0.6-4.96-1.82-6v7.97L98.95,47.35z"/>
<polygon class="st3" points="102.46,75.43 101.97,75.43 101.97,42.79 102.46,42.79 102.46,75.43 "/>
<polygon class="st3" points="106.12,75.43 105.63,75.43 105.63,42.79 106.12,42.79 106.12,75.43 "/>
<polygon class="st3" points="109.77,75.43 109.27,75.43 109.27,42.79 109.77,42.79 109.77,75.43 "/>
<polygon class="st3" points="113.41,75.43 112.92,75.43 112.92,42.79 113.41,42.79 113.41,75.43 "/>
<path class="st0" d="M95.56,50.23c11.73,0,16.69-3.79,19.17-6.66V33.01c1.29-0.37,1.99-1.33,2.08-2.89
	c-3.66,3.01-9.39-4.04-12.78,3.27c1.83,3.65,5.48,3.27,6.78,1.17c2.61,2.22,0.52,10.57-15.25,10.44V50.23z"/>
<path class="st4" d="M99.87,75.81c-0.91,1.18-0.12,2.24,0.66,2.63c-0.27-0.79-0.13-1.52,0.4-2.22L99.87,75.81z"/>
<path class="st0" d="M100.6,78.42c-0.53-0.12-1.04-0.56-1.18-1.2c-0.11-0.47,0.03-0.98,0.38-1.45l0.12,0.1
	c-0.34,0.43-0.45,0.88-0.36,1.33c0.14,0.55,0.6,0.98,0.99,1.15c-0.39-0.71-0.24-1.47,0.29-2.2
	C100.47,76.94,100.35,77.65,100.6,78.42L100.6,78.42z"/>
<path class="st4" d="M104.43,80.27c0.08,0.52-0.18,1.17-0.78,1.97c1.57-0.4,2.22-0.93,1.69-1.84L104.43,80.27z"/>
<path class="st0" d="M103.67,82.3c0.5-0.88,0.76-1.52,0.67-2.02l0.17-0.02c0.09,0.54-0.18,1.23-0.8,2.01
	c0.96-0.39,1.52-0.68,1.67-1.07c0.1-0.22,0.06-0.47-0.11-0.76c0.35,0.26,0.38,0.57,0.28,0.83C105.36,81.7,104.76,82.03,103.67,82.3
	L103.67,82.3z"/>
<path class="st4" d="M109.64,78.3c0.27,0.62,0.31,1.32,0.14,2.1c1.17-1.05,1.56-2.48,0.65-2.75L109.64,78.3z"/>
<path class="st0" d="M109.84,80.45c0.03-0.84-0.01-1.53-0.28-2.12l0.16-0.05c0.27,0.62,0.31,1.34,0.13,2.14
	c0.63-0.77,1.11-1.67,0.98-2.24c-0.05-0.24-0.2-0.39-0.42-0.45c0.34-0.09,0.52,0.12,0.59,0.4
	C111.14,78.77,110.66,79.71,109.84,80.45L109.84,80.45z"/>
<path class="st4" d="M109.52,73.6c0.43,0.1,0.86,0.51,1.3,1.3c0.14-1.44-0.13-2.22-1.43-2.48L109.52,73.6z"/>
<path class="st0" d="M110.89,74.92c-0.56-0.72-0.99-1.15-1.4-1.24l0.03-0.15c0.46,0.09,0.92,0.54,1.37,1.34
	c-0.01-1.5-0.38-2.13-1.53-2.36C110.82,72.62,111.02,73.54,110.89,74.92L110.89,74.92z"/>
<path class="st4" d="M98.04,69.3l6.14,5.61c0,0-2.35,0.52-3.26,0.52c-0.92,0-1.7,0.26-1.44,0.53c0.26,0.26,0.77,0.26,1.04,0.64
	c0.25,0.39,0.65,0.92,1.17,0.39c0.53-0.51,2.35-1.03,2.35-1.03s0,3-0.13,3.38c-0.12,0.4-0.52,1.17-0.25,1.17
	c0.25,0,0.25-0.12,1.31,0c1.03,0.14,0.91,0.4,0.65-1.17c-0.26-1.55-0.13-3.25-0.13-3.25s2.34,1.55,3.13,2.61
	c0.78,1.04,0.66,0.26,1.04-0.14c0.4-0.38,0.91-0.51,1.31-0.64c0.39-0.13-1.05-0.53-1.44-0.79c-0.4-0.26-3.39-1.96-3.39-1.96
	s1.69-0.52,2.73-0.66c1.04-0.12,1.04-0.12,0.92-0.64c-0.14-0.52,0-1.05,0-1.3c0-0.25-0.14-0.52-0.79,0
	c-0.65,0.52-3.65,1.83-3.65,1.83l-5.09-6.78L98.04,69.3z"/>
<path class="st0" d="M105.64,80.7c-0.08,0-0.17-0.01-0.3-0.03l-0.4-0.05c-0.74-0.1-0.95-0.05-1.1-0.04l-0.34-0.03
	c-0.09-0.13,0.02-0.42,0.2-0.88l0.12-0.33c0.11-0.3,0.13-2.52,0.13-3.37c-0.08,0.13-1.73,0.62-2.21,1.11
	c-0.16,0.15-0.34,0.25-0.54,0.22c-0.31-0.02-0.53-0.33-0.75-0.63c-0.12-0.21-0.35-0.3-0.56-0.39c-0.18-0.07-0.34-0.13-0.47-0.25
	l-0.04-0.04l-0.02-0.2c0.11-0.28,0.88-0.42,1.56-0.42c0.89,0,3.21-0.52,3.24-0.52l-6.16-5.48l0.11-0.12l6.12,5.61
	c-0.13,0.16-2.41,0.67-3.31,0.67c-0.78,0-1.35,0.2-1.4,0.32c0.12,0.16,0.27,0.23,0.43,0.28c0.22,0.1,0.48,0.2,0.65,0.45
	c0.18,0.28,0.4,0.54,0.63,0.57c0.14,0.02,0.28-0.04,0.41-0.18c0.53-0.54,2.31-1.04,2.39-1.07c0.09,0.21,0.09,3.1-0.03,3.51
	l-0.13,0.33c-0.09,0.22-0.25,0.66-0.21,0.73c0.33-0.04,0.55-0.09,1.31,0l0.41,0.08c0.14,0.02,0.29,0.05,0.32,0.02
	c0.04-0.04,0-0.28-0.05-0.59l-0.11-0.59c-0.25-1.55-0.14-3.27-0.13-3.28c0.22,0,2.48,1.53,3.28,2.55c0.29,0.41,0.36,0.47,0.49,0.5
	c0.05,0,0.11-0.11,0.16-0.24c0.07-0.12,0.14-0.27,0.25-0.39c0.36-0.35,0.82-0.51,1.19-0.62c0.12-0.08-0.29-0.25-0.56-0.36
	c-0.29-0.12-0.59-0.23-0.74-0.33c-0.4-0.26-3.39-1.96-3.39-1.96c0.03-0.15,1.73-0.67,2.77-0.8c0.53-0.07,0.82-0.11,0.89-0.2
	c0.04-0.04,0-0.17-0.05-0.37c-0.09-0.38-0.05-0.76-0.02-1.04c0.01-0.12,0.02-0.21,0.02-0.27c-0.13-0.24-0.26-0.25-0.65,0.07
	c-0.66,0.53-3.55,1.77-3.68,1.84l-5.18-6.81l5.21,6.68c-0.01-0.07,2.9-1.33,3.54-1.84c0.34-0.27,0.59-0.37,0.75-0.29
	c0.07,0.04,0.16,0.12,0.16,0.36c0,0.07-0.01,0.16-0.02,0.29c-0.03,0.26-0.07,0.63,0.02,1c0.05,0.23,0.1,0.37,0.02,0.49
	c-0.1,0.14-0.35,0.16-1,0.24c-0.95,0.13-2.46,0.59-2.69,0.66c0.31,0.02,3.01,1.57,3.38,1.83c0.14,0.08,0.44,0.21,0.72,0.32
	c0.62,0.25,0.82,0.34,0.82,0.47l-0.28,0.2c-0.37,0.11-0.79,0.24-1.12,0.57c-0.1,0.11-0.16,0.25-0.21,0.37
	c-0.09,0.15-0.16,0.3-0.3,0.31c-0.16,0.01-0.35-0.15-0.66-0.55c-0.72-0.98-2.84-2.4-3.08-2.58c0.08,0.17-0.01,1.75,0.24,3.16
	l0.1,0.59c0.09,0.46,0.12,0.64,0.02,0.73C105.77,80.69,105.71,80.7,105.64,80.7L105.64,80.7z"/>
<path class="st0" d="M93.22,86.27l2.74-3.27c3.13,1.92,5.43,1.39,6.9-1.55c-4.69,0.79-6.9-3.49-6.65-12.79l3.52,5.47v-5.08l4.3,0.52
	L92.7,57.42L93.22,86.27z"/>
<path class="st0" d="M87.49,47.35v15.41L70.02,77.12V38.87c0-2.96,0.61-4.96,1.82-6v7.97L87.49,47.35z"/>
<polygon class="st3" points="84.48,75.43 83.99,75.43 83.99,42.79 84.48,42.79 84.48,75.43 "/>
<polygon class="st3" points="80.82,75.43 80.34,75.43 80.34,42.79 80.82,42.79 80.82,75.43 "/>
<polygon class="st3" points="77.17,75.43 76.69,75.43 76.69,42.79 77.17,42.79 77.17,75.43 "/>
<polygon class="st3" points="73.53,75.43 73.03,75.43 73.03,42.79 73.53,42.79 73.53,75.43 "/>
<path class="st0" d="M90.88,50.23c-11.74,0-16.69-3.79-19.17-6.66V33.01c-1.31-0.37-2-1.33-2.08-2.89
	c3.65,3.01,9.38-4.04,12.76,3.27c-1.82,3.65-5.47,3.27-6.78,1.17c-2.6,2.22-0.52,10.57,15.25,10.44V50.23z"/>
<path class="st4" d="M86.58,75.81c0.91,1.18,0.14,2.24-0.66,2.63c0.27-0.79,0.13-1.52-0.38-2.22L86.58,75.81z"/>
<path class="st0" d="M85.96,78.5c0.14-0.86,0.02-1.56-0.49-2.24c0.66,0.62,0.8,1.38,0.53,2.2c0.28-0.28,0.74-0.71,0.87-1.26
	c0.1-0.45-0.02-0.89-0.37-1.33l0.13-0.1c0.37,0.47,0.5,0.98,0.4,1.45C86.9,77.85,86.39,78.3,85.96,78.5L85.96,78.5z"/>
<path class="st4" d="M82.01,80.27c-0.08,0.52,0.18,1.17,0.78,1.97c-1.56-0.4-2.2-0.93-1.69-1.84L82.01,80.27z"/>
<path class="st0" d="M82.87,82.17c-1.19-0.14-1.78-0.47-1.96-0.9c-0.12-0.26-0.08-0.56,0.11-0.91c-0.03,0.38-0.07,0.63,0.02,0.85
	c0.17,0.38,0.74,0.67,1.76,0.93c-0.7-0.65-0.97-1.34-0.88-1.88l0.17,0.02C82.01,80.78,82.26,81.42,82.87,82.17L82.87,82.17z"/>
<path class="st4" d="M76.8,78.3c-0.26,0.62-0.3,1.32-0.13,2.1c-1.18-1.05-1.57-2.48-0.66-2.75L76.8,78.3z"/>
<path class="st0" d="M76.74,80.37c-0.95-0.66-1.43-1.61-1.28-2.24c0.05-0.28,0.24-0.49,0.53-0.56c-0.18,0.22-0.33,0.37-0.37,0.61
	c-0.14,0.57,0.34,1.47,1.11,2.15c-0.31-0.72-0.27-1.43,0-2.05l0.15,0.05C76.62,78.92,76.58,79.61,76.74,80.37L76.74,80.37z"/>
<path class="st4" d="M76.93,73.6c-0.43,0.1-0.87,0.51-1.3,1.3c-0.13-1.44,0.14-2.22,1.44-2.48L76.93,73.6z"/>
<path class="st0" d="M75.7,74.95c-0.28-1.41-0.07-2.33,1.35-2.61c-1.12,0.39-1.48,1.02-1.34,2.55c0.3-0.84,0.74-1.28,1.2-1.37
	l0.04,0.15C76.54,73.77,76.12,74.2,75.7,74.95L75.7,74.95z"/>
<path class="st4" d="M88.4,69.3l-6.12,5.61c0,0,2.35,0.52,3.27,0.52c0.91,0,1.69,0.26,1.43,0.53c-0.25,0.26-0.78,0.26-1.05,0.64
	c-0.25,0.39-0.64,0.92-1.17,0.39c-0.53-0.51-2.35-1.03-2.35-1.03s0,3,0.13,3.38c0.13,0.4,0.53,1.17,0.25,1.17
	c-0.25,0-0.25-0.12-1.29,0c-1.05,0.14-0.91,0.4-0.66-1.17c0.25-1.55,0.13-3.25,0.13-3.25s-2.34,1.55-3.11,2.61
	c-0.79,1.04-0.66,0.26-1.05-0.14c-0.39-0.38-0.91-0.51-1.3-0.64c-0.39-0.13,1.04-0.53,1.43-0.79c0.39-0.26,3.39-1.96,3.39-1.96
	s-1.69-0.52-2.73-0.66c-1.05-0.12-1.05-0.12-0.91-0.64c0.13-0.52,0-1.05,0-1.3c0-0.25,0.13-0.52,0.78,0
	c0.66,0.52,3.65,1.83,3.65,1.83l5.09-6.78L88.4,69.3z"/>
<path class="st0" d="M80.8,80.7c-0.06,0-0.12-0.01-0.16-0.05c-0.09-0.09-0.06-0.27,0.03-0.73l0.1-0.59
	c0.24-1.46,0.15-3.05,0.13-3.24c-0.08,0.21-2.25,1.67-2.98,2.65c-0.3,0.4-0.49,0.57-0.65,0.55c-0.14-0.01-0.21-0.16-0.29-0.31
	c-0.06-0.12-0.12-0.26-0.23-0.36c-0.33-0.34-0.74-0.47-1.11-0.58l-0.28-0.2c-0.01-0.13,0.19-0.22,0.81-0.47
	c0.29-0.11,0.58-0.24,0.72-0.32c0.36-0.26,2.98-1.74,3.35-1.95c-0.27,0-1.73-0.41-2.66-0.54c-0.66-0.08-0.9-0.1-1-0.24
	c-0.07-0.12-0.04-0.26,0.02-0.49c0.09-0.37,0.05-0.74,0.02-1c-0.01-0.13-0.02-0.23-0.02-0.29c0-0.24,0.09-0.32,0.15-0.36
	c0.17-0.08,0.42,0.02,0.76,0.29c0.63,0.51,3.59,1.8,3.63,1.81l4.99-6.76l-4.96,6.89c-0.22-0.04-3.11-1.28-3.76-1.82
	c-0.38-0.31-0.53-0.3-0.57-0.28c-0.08,0.28-0.06,0.37-0.06,0.49c0.04,0.28,0.08,0.66-0.02,1.04c-0.05,0.2-0.07,0.33-0.04,0.37
	c0.06,0.09,0.36,0.13,0.88,0.2c1.04,0.13,2.73,0.65,2.75,0.65c0.02,0.15-2.98,1.85-3.36,2.11c-0.16,0.1-0.47,0.21-0.75,0.33
	c-0.27,0.11-0.68,0.28-0.72,0.35c0.53,0.12,0.99,0.28,1.35,0.63c0.12,0.12,0.19,0.27,0.25,0.39c0.05,0.13,0.11,0.24,0.16,0.24
	c0.09-0.03,0.2-0.09,0.5-0.5c0.78-1.02,3.05-2.55,3.15-2.62c0.11,0.08,0.24,1.79-0.01,3.35l-0.1,0.59c-0.06,0.3-0.11,0.54-0.07,0.59
	c0.02,0.03,0.18,0,0.33-0.02l0.41-0.08c0.76-0.09,0.98-0.04,1.13-0.02c0.22-0.04,0.05-0.5-0.04-0.71l-0.12-0.33
	c-0.13-0.41-0.13-3.3-0.13-3.42c0.18-0.07,1.95,0.43,2.48,0.98c0.14,0.14,0.29,0.21,0.4,0.18c0.24-0.02,0.46-0.28,0.63-0.57
	c0.17-0.25,0.43-0.35,0.66-0.45c0.16-0.05,0.31-0.12,0.41-0.22c-0.03-0.18-0.59-0.38-1.37-0.38c-0.92,0-3.18-0.51-3.28-0.53
	l6.09-5.75l0.11,0.12l-6.11,5.61c0.21-0.08,2.34,0.39,3.2,0.39c0.66,0,1.43,0.14,1.54,0.42l0.02,0.03l-0.08,0.21
	c-0.12,0.12-0.28,0.18-0.46,0.25c-0.22,0.09-0.43,0.18-0.57,0.39c-0.21,0.3-0.44,0.61-0.75,0.63c-0.18,0.03-0.36-0.07-0.54-0.22
	c-0.5-0.51-2.29-1.03-2.31-1.03c0.1,0.75,0.12,2.99,0.23,3.29l0.12,0.31c0.18,0.47,0.29,0.76,0.19,0.89l-0.34,0.03
	c-0.15-0.01-0.36-0.05-1.09,0.04l-0.41,0.05C80.97,80.69,80.88,80.7,80.8,80.7L80.8,80.7z"/>
<path class="st0" d="M93.22,86.27l-2.73-3.27c-3.12,1.92-5.43,1.39-6.9-1.55c4.68,0.79,6.9-3.49,6.63-12.79l-3.5,5.47v-5.08
	l-4.31,0.52l11.34-12.14L93.22,86.27z"/>
<rect y="0.94" class="st6" width="186.45" height="108.95"/>
<rect y="0.94" class="st6" width="186.45" height="108.95"/>
</svg>
