<?xml version="1.0" encoding="utf-8"?>
<!-- Generator: Adobe Illustrator 27.6.1, SVG Export Plug-In . SVG Version: 6.00 Build 0)  -->
<svg version="1.1" id="Layer_1" xmlns="http://www.w3.org/2000/svg" xmlns:xlink="http://www.w3.org/1999/xlink" x="0px" y="0px"
	 viewBox="0 0 186.45 109.89" style="enable-background:new 0 0 186.45 109.89;" xml:space="preserve">
<style type="text/css">
	.st0{fill:#2C3077;}
	.st1{fill:#FFFFFF;}
	.st2{fill:#BD1F38;}
</style>
<polygon class="st0" points="93.26,0 93.26,3.5 93.26,4.69 93.26,5.25 72.56,15.7 93.26,15.7 93.26,18.85 93.26,23.56 93.26,28.27 
	93.26,31.4 72.56,31.4 93.26,41.86 93.26,43.62 93.26,47.12 93.26,47.42 86.89,47.42 84.51,47.42 83.42,47.42 54.38,32.75 
	54.38,47.42 51.27,47.42 46.61,47.42 41.95,47.42 38.84,47.42 38.84,32.75 9.81,47.42 6.33,47.42 0,47.42 0,109.89 186.45,109.89 
	186.45,0 "/>
<polygon class="st0" points="0,72.77 0,96.96 41.29,72.77 "/>
<polygon class="st0" points="108.72,0 108.72,33.31 165.54,0 "/>
<polygon class="st0" points="77.64,0 20.83,0 77.64,33.31 "/>
<polygon class="st0" points="0,36.38 41.29,36.38 0,12.23 "/>
<polygon class="st1" points="186.37,0 124.25,36.38 110.33,36.38 172.46,0 165.54,0 108.72,33.31 108.72,0 102.49,0 102.49,36.93 
	102.49,40.99 102.49,43.67 111.81,43.67 125.71,43.67 130.46,43.67 132.64,43.67 186.45,43.67 186.45,36.38 145.07,36.38 
	186.45,12.17 186.45,10.87 186.45,8.11 186.45,0 "/>
<polygon class="st1" points="77.64,0 77.64,33.31 20.83,0 0,0 62.12,36.38 48.23,36.38 0,8.17 0,12.23 41.29,36.38 0,36.38 0,43.67 
	53.7,43.67 60.66,43.67 74.53,43.67 83.87,43.67 83.87,40.99 83.87,38.22 83.87,36.93 83.87,0 "/>
<polygon class="st1" points="125.71,65.51 111.81,65.51 102.49,65.51 102.49,68.18 102.49,70.96 102.49,72.24 102.49,109.89 
	108.72,109.89 108.72,75.89 166.76,109.89 168.95,109.89 173.71,109.89 186.45,109.89 186.45,109.2 124.25,72.77 138.13,72.77 
	186.45,101.08 186.45,97.01 145.07,72.77 186.45,72.77 186.45,65.51 132.64,65.51 "/>
<polygon class="st1" points="74.53,65.51 60.66,65.51 55.9,65.51 53.7,65.51 0,65.51 0,72.77 41.29,72.77 0,96.96 0,109.14 
	62.12,72.77 76.01,72.77 12.66,109.89 19.61,109.89 77.64,75.89 77.64,109.89 83.87,109.89 83.87,72.24 83.87,68.18 83.87,65.51 "/>
<polygon class="st2" points="62.12,72.77 0,109.14 0,109.89 12.66,109.89 76.01,72.77 "/>
<polygon class="st2" points="0,8.17 48.23,36.38 62.12,36.38 0,0 "/>
<polygon class="st2" points="186.37,0 172.46,0 110.33,36.38 124.25,36.38 "/>
<polygon class="st2" points="124.25,72.77 186.45,109.2 186.45,101.08 138.13,72.77 "/>
<polygon class="st2" points="83.87,0 83.87,36.93 83.87,38.22 83.87,40.99 83.87,43.67 74.53,43.67 60.66,43.67 53.7,43.67 0,43.67 
	0,65.51 53.7,65.51 55.9,65.51 60.66,65.51 74.53,65.51 83.87,65.51 83.87,68.18 83.87,72.24 83.87,109.89 93.17,109.89 
	102.49,109.89 102.49,72.24 102.49,70.96 102.49,68.18 102.49,65.51 111.81,65.51 125.71,65.51 132.64,65.51 186.45,65.51 
	186.45,54.6 186.45,43.67 132.64,43.67 130.46,43.67 125.71,43.67 111.81,43.67 102.49,43.67 102.49,40.99 102.49,36.93 102.49,0 
	"/>
</svg>
