<?xml version="1.0" encoding="utf-8"?>
<!-- Generator: Adobe Illustrator 27.6.1, SVG Export Plug-In . SVG Version: 6.00 Build 0)  -->
<svg version="1.1" id="Layer_1" xmlns="http://www.w3.org/2000/svg" xmlns:xlink="http://www.w3.org/1999/xlink" x="0px" y="0px"
	 viewBox="0 0 119.82 28.07" style="enable-background:new 0 0 119.82 28.07;" xml:space="preserve">
<style type="text/css">
	.st0{fill:#010101;}
</style>
<g>
	<g>
		<polygon class="st0" points="5.12,10.04 5.83,10.74 8.4,8.17 10.98,10.74 11.69,10.04 8.4,6.75 		"/>
		<path class="st0" d="M14.32,3.17h-1H2.49v9.7V15H7.9v8.7v2.13h11.83V23.7V15h5.42v-2.13v-9.7H14.32z M3.49,14v-1.13v-8.7h9.83v8.7
			V14H7.9H3.49z M18.73,23.7v1.13H8.9V23.7V15h4.42h1h4.41V23.7z M24.15,14h-4.42h-5.41v-1.13v-8.7h9.83v8.7V14z"/>
		<polygon class="st0" points="15.95,10.04 16.66,10.74 19.23,8.17 21.81,10.74 22.52,10.04 19.23,6.75 		"/>
		<polygon class="st0" points="11.24,17.94 10.53,18.64 13.81,21.93 17.1,18.64 16.39,17.94 13.81,20.51 		"/>
	</g>
	<g>
		<path class="st0" d="M30.22,14.22v2.95H29v-7h1.22v2.91h3.36v-2.91h1.22v7h-1.22v-2.95H30.22z"/>
		<path class="st0" d="M39.69,17.17v-0.65c-0.18,0.21-0.41,0.39-0.69,0.54c-0.28,0.15-0.62,0.22-1.02,0.22
			c-0.25,0-0.49-0.03-0.72-0.1c-0.23-0.07-0.43-0.17-0.6-0.31c-0.17-0.14-0.31-0.31-0.41-0.51c-0.1-0.2-0.16-0.44-0.16-0.71v-0.02
			c0-0.29,0.05-0.54,0.16-0.75c0.11-0.21,0.25-0.39,0.44-0.53c0.19-0.14,0.42-0.25,0.68-0.31c0.26-0.07,0.55-0.1,0.85-0.1
			c0.32,0,0.59,0.02,0.81,0.06c0.22,0.04,0.44,0.09,0.65,0.16v-0.13c0-0.37-0.11-0.65-0.33-0.84c-0.22-0.19-0.54-0.29-0.96-0.29
			c-0.3,0-0.57,0.03-0.8,0.09s-0.47,0.14-0.71,0.24l-0.33-0.97c0.29-0.13,0.59-0.24,0.9-0.32c0.31-0.08,0.68-0.12,1.11-0.12
			c0.79,0,1.37,0.19,1.75,0.58c0.38,0.39,0.57,0.94,0.57,1.65v3.13H39.69z M39.72,14.93c-0.15-0.06-0.33-0.11-0.54-0.15
			s-0.43-0.06-0.67-0.06c-0.38,0-0.68,0.07-0.89,0.22s-0.32,0.36-0.32,0.63v0.02c0,0.25,0.1,0.45,0.29,0.58
			c0.2,0.13,0.44,0.2,0.73,0.2c0.2,0,0.38-0.03,0.55-0.08c0.17-0.05,0.32-0.13,0.45-0.23c0.13-0.1,0.22-0.21,0.29-0.35
			c0.07-0.14,0.1-0.29,0.1-0.46V14.93z"/>
		<path class="st0" d="M42.4,17.17v-7.3h1.22v7.3H42.4z"/>
		<path class="st0" d="M50.31,15.6c-0.14,0.33-0.34,0.62-0.59,0.88s-0.55,0.45-0.9,0.59s-0.72,0.22-1.13,0.22
			c-0.4,0-0.77-0.07-1.12-0.22c-0.34-0.14-0.64-0.34-0.89-0.59s-0.45-0.54-0.58-0.87c-0.14-0.33-0.21-0.68-0.21-1.06
			c0-0.38,0.07-0.74,0.21-1.07c0.14-0.34,0.34-0.63,0.59-0.88s0.55-0.45,0.89-0.59s0.72-0.22,1.12-0.22c0.41,0,0.78,0.07,1.12,0.22
			c0.34,0.14,0.64,0.34,0.89,0.59s0.44,0.54,0.58,0.88c0.14,0.33,0.21,0.69,0.21,1.07C50.53,14.91,50.46,15.27,50.31,15.6z
			 M49.19,13.89c-0.08-0.21-0.19-0.39-0.33-0.55c-0.14-0.16-0.31-0.28-0.51-0.37c-0.2-0.09-0.41-0.14-0.65-0.14
			c-0.24,0-0.46,0.04-0.65,0.14c-0.2,0.09-0.36,0.21-0.5,0.36s-0.25,0.33-0.32,0.54c-0.07,0.2-0.11,0.42-0.11,0.65
			c0,0.23,0.04,0.46,0.12,0.67s0.19,0.39,0.33,0.54c0.14,0.15,0.31,0.28,0.51,0.37s0.41,0.13,0.64,0.13c0.25,0,0.47-0.04,0.66-0.13
			s0.36-0.21,0.5-0.37c0.14-0.15,0.25-0.33,0.32-0.53c0.07-0.2,0.11-0.42,0.11-0.66C49.31,14.32,49.27,14.1,49.19,13.89z"/>
		<path class="st0" d="M51.56,14.7v-1.19h2.96v1.19H51.56z"/>
		<path class="st0" d="M57.2,14.22v2.95h-1.22v-7h1.22v2.91h3.36v-2.91h1.22v7h-1.22v-2.95H57.2z"/>
		<path class="st0" d="M66.67,17.17v-0.65c-0.18,0.21-0.41,0.39-0.69,0.54c-0.28,0.15-0.62,0.22-1.02,0.22
			c-0.25,0-0.49-0.03-0.72-0.1c-0.23-0.07-0.43-0.17-0.6-0.31c-0.17-0.14-0.31-0.31-0.41-0.51c-0.1-0.2-0.16-0.44-0.16-0.71v-0.02
			c0-0.29,0.05-0.54,0.16-0.75c0.11-0.21,0.25-0.39,0.44-0.53c0.19-0.14,0.42-0.25,0.68-0.31c0.26-0.07,0.55-0.1,0.85-0.1
			c0.32,0,0.59,0.02,0.81,0.06c0.22,0.04,0.44,0.09,0.65,0.16v-0.13c0-0.37-0.11-0.65-0.33-0.84c-0.22-0.19-0.54-0.29-0.96-0.29
			c-0.3,0-0.57,0.03-0.8,0.09s-0.47,0.14-0.71,0.24l-0.33-0.97c0.29-0.13,0.59-0.24,0.9-0.32c0.31-0.08,0.68-0.12,1.11-0.12
			c0.79,0,1.37,0.19,1.75,0.58c0.38,0.39,0.57,0.94,0.57,1.65v3.13H66.67z M66.7,14.93c-0.15-0.06-0.33-0.11-0.54-0.15
			s-0.43-0.06-0.67-0.06c-0.38,0-0.68,0.07-0.89,0.22s-0.32,0.36-0.32,0.63v0.02c0,0.25,0.1,0.45,0.29,0.58
			c0.2,0.13,0.44,0.2,0.73,0.2c0.2,0,0.38-0.03,0.55-0.08c0.17-0.05,0.32-0.13,0.45-0.23c0.13-0.1,0.22-0.21,0.29-0.35
			c0.07-0.14,0.1-0.29,0.1-0.46V14.93z"/>
		<path class="st0" d="M69.38,17.17v-7.3h1.22v7.3H69.38z"/>
		<path class="st0" d="M77.29,15.6c-0.14,0.33-0.34,0.62-0.59,0.88s-0.55,0.45-0.9,0.59s-0.72,0.22-1.13,0.22
			c-0.4,0-0.77-0.07-1.12-0.22c-0.34-0.14-0.64-0.34-0.89-0.59s-0.45-0.54-0.58-0.87c-0.14-0.33-0.21-0.68-0.21-1.06
			c0-0.38,0.07-0.74,0.21-1.07c0.14-0.34,0.34-0.63,0.59-0.88s0.55-0.45,0.89-0.59s0.72-0.22,1.12-0.22c0.41,0,0.78,0.07,1.12,0.22
			c0.34,0.14,0.64,0.34,0.89,0.59s0.44,0.54,0.58,0.88c0.14,0.33,0.21,0.69,0.21,1.07C77.51,14.91,77.44,15.27,77.29,15.6z
			 M76.17,13.89c-0.08-0.21-0.19-0.39-0.33-0.55c-0.14-0.16-0.31-0.28-0.51-0.37c-0.2-0.09-0.41-0.14-0.65-0.14
			c-0.24,0-0.46,0.04-0.65,0.14c-0.2,0.09-0.36,0.21-0.5,0.36s-0.25,0.33-0.32,0.54c-0.07,0.2-0.11,0.42-0.11,0.65
			c0,0.23,0.04,0.46,0.12,0.67s0.19,0.39,0.33,0.54c0.14,0.15,0.31,0.28,0.51,0.37s0.41,0.13,0.64,0.13c0.25,0,0.47-0.04,0.66-0.13
			s0.36-0.21,0.5-0.37c0.14-0.15,0.25-0.33,0.32-0.53c0.07-0.2,0.11-0.42,0.11-0.66C76.29,14.32,76.25,14.1,76.17,13.89z"/>
		<path class="st0" d="M87.08,13.56c-0.15,0.3-0.35,0.55-0.6,0.75c-0.25,0.2-0.55,0.35-0.89,0.46c-0.34,0.1-0.71,0.15-1.09,0.15
			H83.1v2.25h-1.22v-7h2.76c0.41,0,0.77,0.06,1.1,0.17c0.33,0.11,0.61,0.27,0.84,0.48s0.41,0.45,0.53,0.74
			c0.12,0.29,0.19,0.61,0.19,0.97C87.3,12.92,87.22,13.26,87.08,13.56z M85.64,11.6c-0.27-0.21-0.64-0.32-1.1-0.32H83.1v2.53h1.43
			c0.47,0,0.84-0.12,1.11-0.35s0.41-0.54,0.41-0.92C86.05,12.13,85.91,11.81,85.64,11.6z"/>
		<path class="st0" d="M89.64,17.17h-1.22v-5.28h1.22v1.19c0.17-0.4,0.4-0.72,0.71-0.96c0.31-0.24,0.69-0.35,1.16-0.33v1.28h-0.07
			c-0.27,0-0.51,0.04-0.73,0.13c-0.22,0.09-0.41,0.22-0.57,0.39s-0.28,0.39-0.37,0.66c-0.09,0.26-0.13,0.57-0.13,0.92V17.17z"/>
		<path class="st0" d="M97.49,15.6c-0.14,0.33-0.34,0.62-0.59,0.88s-0.55,0.45-0.9,0.59s-0.72,0.22-1.13,0.22
			c-0.4,0-0.77-0.07-1.12-0.22c-0.34-0.14-0.64-0.34-0.89-0.59s-0.45-0.54-0.58-0.87c-0.14-0.33-0.21-0.68-0.21-1.06
			c0-0.38,0.07-0.74,0.21-1.07c0.14-0.34,0.34-0.63,0.59-0.88s0.55-0.45,0.89-0.59s0.72-0.22,1.12-0.22c0.41,0,0.78,0.07,1.12,0.22
			c0.34,0.14,0.64,0.34,0.89,0.59s0.44,0.54,0.58,0.88c0.14,0.33,0.21,0.69,0.21,1.07C97.71,14.91,97.64,15.27,97.49,15.6z
			 M96.37,13.89c-0.08-0.21-0.19-0.39-0.33-0.55c-0.14-0.16-0.31-0.28-0.51-0.37c-0.2-0.09-0.41-0.14-0.65-0.14
			c-0.24,0-0.46,0.04-0.65,0.14c-0.2,0.09-0.36,0.21-0.5,0.36s-0.25,0.33-0.32,0.54c-0.07,0.2-0.11,0.42-0.11,0.65
			c0,0.23,0.04,0.46,0.12,0.67s0.19,0.39,0.33,0.54c0.14,0.15,0.31,0.28,0.51,0.37s0.41,0.13,0.64,0.13c0.25,0,0.47-0.04,0.66-0.13
			s0.36-0.21,0.5-0.37c0.14-0.15,0.25-0.33,0.32-0.53c0.07-0.2,0.11-0.42,0.11-0.66C96.49,14.32,96.45,14.1,96.37,13.89z"/>
		<path class="st0" d="M100.23,11.89v5.35c0,0.54-0.13,0.94-0.4,1.19c-0.27,0.25-0.65,0.38-1.15,0.38c-0.11,0-0.21,0-0.31-0.02
			c-0.09-0.01-0.18-0.02-0.27-0.03v-0.97c0.12,0.02,0.23,0.03,0.34,0.03c0.17,0,0.31-0.05,0.42-0.15c0.1-0.1,0.16-0.26,0.16-0.5
			v-5.28H100.23z M98.96,11.08V9.93h1.31v1.15H98.96z"/>
		<path class="st0" d="M103.24,15.96c0.27,0.23,0.61,0.34,1,0.34c0.3,0,0.56-0.05,0.78-0.16c0.22-0.11,0.44-0.26,0.65-0.47
			l0.71,0.63c-0.25,0.3-0.55,0.54-0.9,0.72c-0.35,0.18-0.77,0.27-1.25,0.27c-0.38,0-0.74-0.07-1.07-0.2
			c-0.33-0.13-0.62-0.32-0.86-0.56c-0.24-0.24-0.44-0.53-0.57-0.86c-0.14-0.34-0.21-0.71-0.21-1.12c0-0.38,0.06-0.74,0.19-1.07
			c0.13-0.33,0.3-0.62,0.53-0.88s0.5-0.45,0.81-0.59c0.31-0.15,0.66-0.22,1.04-0.22c0.42,0,0.79,0.08,1.1,0.23
			c0.32,0.15,0.58,0.36,0.79,0.62c0.21,0.26,0.37,0.56,0.48,0.91s0.16,0.71,0.16,1.09c0,0.05,0,0.11,0,0.16
			c0,0.05-0.01,0.11-0.02,0.17h-3.88C102.79,15.4,102.96,15.73,103.24,15.96z M105.42,14.16c-0.02-0.19-0.06-0.38-0.13-0.55
			c-0.07-0.17-0.16-0.32-0.27-0.44c-0.11-0.12-0.25-0.22-0.4-0.29c-0.16-0.07-0.34-0.11-0.54-0.11c-0.37,0-0.68,0.13-0.93,0.38
			c-0.24,0.26-0.39,0.59-0.44,1.01H105.42z"/>
		<path class="st0" d="M111.56,17.02c-0.33,0.18-0.76,0.27-1.27,0.27c-0.39,0-0.76-0.07-1.09-0.22c-0.33-0.14-0.62-0.34-0.87-0.59
			c-0.25-0.25-0.44-0.54-0.57-0.87c-0.14-0.33-0.21-0.68-0.21-1.06c0-0.38,0.07-0.74,0.21-1.07s0.33-0.63,0.57-0.88
			c0.25-0.25,0.54-0.45,0.87-0.6s0.7-0.22,1.1-0.22c0.5,0,0.91,0.08,1.24,0.25c0.33,0.17,0.62,0.39,0.87,0.66l-0.75,0.81
			c-0.19-0.19-0.39-0.35-0.6-0.48c-0.21-0.12-0.47-0.19-0.77-0.19c-0.22,0-0.42,0.04-0.61,0.14c-0.19,0.09-0.35,0.21-0.48,0.36
			c-0.13,0.15-0.24,0.33-0.31,0.54c-0.08,0.2-0.12,0.42-0.12,0.65c0,0.24,0.04,0.46,0.12,0.67c0.08,0.21,0.18,0.39,0.32,0.54
			c0.14,0.15,0.31,0.28,0.5,0.37s0.41,0.13,0.64,0.13c0.29,0,0.54-0.06,0.75-0.19c0.22-0.12,0.42-0.28,0.62-0.47l0.73,0.72
			C112.19,16.6,111.89,16.83,111.56,17.02z"/>
		<path class="st0" d="M115.02,15.52c0,0.23,0.06,0.4,0.17,0.51c0.11,0.1,0.27,0.16,0.48,0.16c0.26,0,0.51-0.06,0.75-0.18v0.99
			c-0.15,0.09-0.32,0.15-0.49,0.2c-0.17,0.05-0.37,0.07-0.6,0.07c-0.22,0-0.42-0.03-0.61-0.08c-0.19-0.05-0.35-0.14-0.49-0.26
			c-0.14-0.12-0.24-0.28-0.32-0.48c-0.07-0.2-0.11-0.44-0.11-0.74v-2.79h-0.67v-1.03h0.67v-1.45h1.22v1.45h1.42v1.03h-1.42V15.52z"
			/>
	</g>
</g>
</svg>
