<?xml version="1.0" encoding="utf-8"?>
<!-- Generator: Adobe Illustrator 27.6.1, SVG Export Plug-In . SVG Version: 6.00 Build 0)  -->
<svg version="1.1" id="Layer_1" xmlns="http://www.w3.org/2000/svg" xmlns:xlink="http://www.w3.org/1999/xlink" x="0px" y="0px"
	 viewBox="0 0 30 30" style="enable-background:new 0 0 30 30;" xml:space="preserve">
<style type="text/css">
	.st0{fill:#354867;}
</style>
<g>
	<g>
		<path class="st0" d="M15,25.61c-4,0-8,0-11.99,0c-0.19,0-0.38,0.02-0.57-0.05c-0.6-0.2-0.82-0.88-0.43-1.37
			c0.24-0.31,0.52-0.58,0.77-0.88c1.59-1.94,2.58-4.15,2.97-6.62c0.09-0.56,0.13-1.12,0.15-1.69c0.03-0.85,0-1.7,0.02-2.55
			c0.04-1.85,0.6-3.53,1.65-5.06c0.89-1.29,2.06-2.25,3.45-2.94c0.39-0.2,0.79-0.36,1.21-0.49c0.11-0.03,0.14-0.09,0.14-0.2
			c-0.01-0.37,0-0.74,0-1.11c0.01-1.48,1.23-2.67,2.72-2.64c1.28,0.02,2.4,1.05,2.55,2.32c0.05,0.47,0.02,0.95,0.02,1.42
			c0,0.13,0.04,0.19,0.17,0.23c1.45,0.46,2.7,1.25,3.74,2.34c1.3,1.37,2.12,2.99,2.42,4.87c0.09,0.53,0.12,1.05,0.12,1.59
			c-0.01,0.89-0.02,1.79,0.03,2.68c0.08,1.32,0.35,2.6,0.8,3.84c0.58,1.6,1.44,3.04,2.55,4.33c0.17,0.2,0.37,0.38,0.52,0.59
			c0.36,0.48,0.18,1.11-0.37,1.35c-0.15,0.06-0.3,0.07-0.46,0.07c-3.22,0-6.43,0-9.65,0C16.68,25.61,15.84,25.61,15,25.61z M15.87,3
			c0-0.13,0-0.26,0-0.4c-0.02-0.46-0.39-0.82-0.84-0.83c-0.47-0.01-0.87,0.33-0.89,0.79c-0.02,0.28,0,0.57,0,0.85
			c0,0.12,0.06,0.14,0.16,0.13c0.15-0.03,0.29-0.02,0.44-0.02c0.31,0,0.62-0.01,0.94,0.03c0.19,0.02,0.2,0,0.2-0.19
			C15.87,3.24,15.87,3.12,15.87,3z"/>
		<path class="st0" d="M1.81,12.31c0.06-1.99,0.51-3.88,1.42-5.65c0.61-1.19,1.37-2.27,2.3-3.23C5.67,3.29,5.8,3.16,5.97,3.09
			c0.36-0.15,0.77-0.05,1.01,0.26C7.24,3.67,7.26,4.1,7.01,4.41C6.79,4.68,6.54,4.93,6.31,5.2C4.88,6.88,4,8.82,3.69,11.01
			c-0.07,0.52-0.08,1.05-0.11,1.57c-0.02,0.39-0.2,0.68-0.57,0.83c-0.56,0.23-1.17-0.18-1.2-0.79C1.81,12.52,1.81,12.41,1.81,12.31z
			"/>
		<path class="st0" d="M28.18,12.34c0.01,0.24,0.01,0.49-0.14,0.72c-0.21,0.32-0.61,0.49-0.95,0.39c-0.41-0.12-0.68-0.45-0.69-0.88
			c-0.02-0.83-0.09-1.64-0.27-2.45c-0.42-1.85-1.23-3.51-2.48-4.95c-0.22-0.25-0.45-0.49-0.66-0.74c-0.26-0.32-0.26-0.73-0.02-1.06
			c0.29-0.4,0.87-0.49,1.24-0.16c0.45,0.39,0.84,0.83,1.19,1.3c0.95,1.25,1.69,2.62,2.16,4.13c0.29,0.93,0.48,1.89,0.55,2.87
			C28.15,11.78,28.19,12.05,28.18,12.34z"/>
		<path class="st0" d="M15,27.35c1.29,0,2.58,0,3.86,0c0.17,0,0.18,0.01,0.1,0.16c-0.52,1.03-1.31,1.77-2.39,2.19
			c-2.13,0.83-4.51-0.15-5.52-2.17c-0.02-0.03-0.04-0.07-0.05-0.11c-0.02-0.06,0-0.08,0.06-0.08c0.07,0,0.14,0.01,0.2,0.01
			C12.51,27.35,13.76,27.35,15,27.35z"/>
	</g>
</g>
</svg>
