<?xml version="1.0" encoding="utf-8"?>
<!-- Generator: Adobe Illustrator 27.6.1, SVG Export Plug-In . SVG Version: 6.00 Build 0)  -->
<svg version="1.1" id="Layer_1" xmlns="http://www.w3.org/2000/svg" xmlns:xlink="http://www.w3.org/1999/xlink" x="0px" y="0px"
	 viewBox="0 0 30 30" style="enable-background:new 0 0 30 30;" xml:space="preserve">
<style type="text/css">
	.st0{fill:#354867;}
</style>
<path class="st0" d="M29.23,18.41l-2.83-1.87c0.07-0.51,0.1-1.02,0.1-1.54c0-0.52-0.04-1.04-0.1-1.54l2.83-1.87
	c0.47-0.31,0.61-0.93,0.32-1.41l-1.66-2.8l-1.66-2.8c-0.28-0.48-0.9-0.65-1.39-0.39l-3,1.58c-0.73-0.54-1.53-1-2.38-1.36L19.3,1.01
	c-0.03-0.56-0.49-1-1.05-1H15h-3.26c-0.56,0-1.02,0.44-1.05,1L10.53,4.4C9.68,4.76,8.88,5.21,8.15,5.76l-3-1.58
	C4.65,3.92,4.04,4.09,3.76,4.57L2.1,7.38l-1.66,2.8c-0.28,0.48-0.14,1.1,0.32,1.41l2.83,1.87c-0.07,0.5-0.1,1.02-0.1,1.54
	c0,0.52,0.04,1.04,0.1,1.54l-2.83,1.87c-0.47,0.31-0.61,0.93-0.32,1.41l1.66,2.8l1.66,2.8c0.28,0.48,0.9,0.65,1.39,0.39l3-1.58
	c0.73,0.54,1.53,1,2.38,1.36l0.17,3.38c0.03,0.56,0.49,1,1.05,1H15h3.26c0.56,0,1.02-0.44,1.05-1l0.17-3.38
	c0.85-0.36,1.65-0.82,2.38-1.36l3,1.58c0.49,0.26,1.11,0.09,1.39-0.39l1.66-2.8l1.66-2.8C29.84,19.34,29.7,18.72,29.23,18.41z
	 M20.18,15c0,2.86-2.32,5.18-5.18,5.18c-2.86,0-5.18-2.32-5.18-5.18c0-2.86,2.32-5.18,5.18-5.18C17.86,9.82,20.18,12.14,20.18,15z"
	/>
</svg>
