<?xml version="1.0" encoding="utf-8"?>
<!-- Generator: Adobe Illustrator 27.6.1, SVG Export Plug-In . SVG Version: 6.00 Build 0)  -->
<svg version="1.1" id="Layer_1" xmlns="http://www.w3.org/2000/svg" xmlns:xlink="http://www.w3.org/1999/xlink" x="0px" y="0px"
	 viewBox="0 0 30 30" style="enable-background:new 0 0 30 30;" xml:space="preserve">
<style type="text/css">
	.st0{fill:#354867;}
</style>
<path class="st0" d="M15,0C6.73,0,0,6.73,0,15c0,3.97,1.51,7.54,4.03,10.22C6.76,28.16,10.68,30,15,30c4.35,0,8.27-1.84,11-4.78
	c2.49-2.68,4-6.24,4-10.22C30,6.73,23.3,0,15,0z M15,7.17c2.8,0,5.08,2.27,5.08,5.08c0,2.8-2.27,5.08-5.08,5.08
	c-2.8,0-5.08-2.27-5.08-5.08C9.92,9.45,12.2,7.17,15,7.17z M14.99,27.81c-3.84,0-7.3-1.7-9.65-4.41c2.35-2.73,5.81-4.43,9.65-4.43
	c3.86,0,7.32,1.7,9.68,4.43C22.31,26.11,18.85,27.81,14.99,27.81z"/>
</svg>
