<?xml version="1.0" encoding="utf-8"?>
<!-- Generator: Adobe Illustrator 27.6.1, SVG Export Plug-In . SVG Version: 6.00 Build 0)  -->
<svg version="1.1" id="Layer_1" xmlns="http://www.w3.org/2000/svg" xmlns:xlink="http://www.w3.org/1999/xlink" x="0px" y="0px"
	 viewBox="0 0 186.45 109.89" style="enable-background:new 0 0 186.45 109.89;" xml:space="preserve">
<style type="text/css">
	.st0{clip-path:url(#SVGID_00000154419632288127693600000015281103075164174987_);fill:#CB2027;}
	.st1{clip-path:url(#SVGID_00000154419632288127693600000015281103075164174987_);fill:#FFFFFF;}
	.st2{clip-path:url(#SVGID_00000154419632288127693600000015281103075164174987_);fill:#2B3660;}
</style>
<g id="USA_5_">
	<g>
		<g>
			<defs>
				<rect id="SVGID_1_" x="-0.34" y="0.94" width="186.78" height="108.95"/>
			</defs>
			<clipPath id="SVGID_00000101065424739607011940000016801414091858182588_">
				<use xlink:href="#SVGID_1_"  style="overflow:visible;"/>
			</clipPath>
			
				<rect x="-0.34" y="101.51" style="clip-path:url(#SVGID_00000101065424739607011940000016801414091858182588_);fill:#CB2027;" width="186.78" height="8.38"/>
			
				<rect x="-0.34" y="93.13" style="clip-path:url(#SVGID_00000101065424739607011940000016801414091858182588_);fill:#FFFFFF;" width="186.78" height="8.38"/>
			
				<rect x="-0.34" y="84.76" style="clip-path:url(#SVGID_00000101065424739607011940000016801414091858182588_);fill:#CB2027;" width="186.78" height="8.37"/>
			
				<rect x="-0.34" y="76.38" style="clip-path:url(#SVGID_00000101065424739607011940000016801414091858182588_);fill:#FFFFFF;" width="186.78" height="8.38"/>
			
				<rect x="-0.34" y="67.99" style="clip-path:url(#SVGID_00000101065424739607011940000016801414091858182588_);fill:#CB2027;" width="186.78" height="8.39"/>
			
				<rect x="-0.34" y="59.62" style="clip-path:url(#SVGID_00000101065424739607011940000016801414091858182588_);fill:#FFFFFF;" width="186.78" height="8.37"/>
			
				<rect x="-0.34" y="51.23" style="clip-path:url(#SVGID_00000101065424739607011940000016801414091858182588_);fill:#CB2027;" width="186.78" height="8.39"/>
			
				<rect x="-0.34" y="42.86" style="clip-path:url(#SVGID_00000101065424739607011940000016801414091858182588_);fill:#FFFFFF;" width="186.78" height="8.37"/>
			
				<rect x="-0.34" y="34.47" style="clip-path:url(#SVGID_00000101065424739607011940000016801414091858182588_);fill:#CB2027;" width="186.78" height="8.38"/>
			
				<rect x="-0.34" y="26.09" style="clip-path:url(#SVGID_00000101065424739607011940000016801414091858182588_);fill:#FFFFFF;" width="186.78" height="8.39"/>
			
				<rect x="-0.34" y="17.71" style="clip-path:url(#SVGID_00000101065424739607011940000016801414091858182588_);fill:#CB2027;" width="186.78" height="8.38"/>
			
				<rect x="-0.34" y="9.33" style="clip-path:url(#SVGID_00000101065424739607011940000016801414091858182588_);fill:#FFFFFF;" width="186.78" height="8.38"/>
			
				<rect x="-0.34" y="0.94" style="clip-path:url(#SVGID_00000101065424739607011940000016801414091858182588_);fill:#CB2027;" width="186.78" height="8.39"/>
			
				<rect x="-0.34" y="0.94" style="clip-path:url(#SVGID_00000101065424739607011940000016801414091858182588_);fill:#2B3660;" width="85.3" height="58.68"/>
			<polygon style="clip-path:url(#SVGID_00000101065424739607011940000016801414091858182588_);fill:#FFFFFF;" points="7.37,7.41 
				8.1,9.63 10.44,9.63 8.54,11 9.26,13.22 7.37,11.85 5.48,13.22 6.22,11 4.33,9.63 6.64,9.63 			"/>
			<polygon style="clip-path:url(#SVGID_00000101065424739607011940000016801414091858182588_);fill:#FFFFFF;" points="7.37,17.21 
				8.1,19.42 10.44,19.42 8.54,20.79 9.26,23.01 7.37,21.64 5.48,23.01 6.22,20.79 4.33,19.42 6.64,19.42 			"/>
			<polygon style="clip-path:url(#SVGID_00000101065424739607011940000016801414091858182588_);fill:#FFFFFF;" points="7.37,27 
				8.1,29.21 10.44,29.21 8.54,30.58 9.26,32.81 7.37,31.43 5.48,32.81 6.22,30.58 4.33,29.21 6.64,29.21 			"/>
			<polygon style="clip-path:url(#SVGID_00000101065424739607011940000016801414091858182588_);fill:#FFFFFF;" points="7.37,36.79 
				8.1,39.01 10.44,39.01 8.54,40.38 9.26,42.59 7.37,41.23 5.48,42.59 6.22,40.38 4.33,39.01 6.64,39.01 			"/>
			<polygon style="clip-path:url(#SVGID_00000101065424739607011940000016801414091858182588_);fill:#FFFFFF;" points="7.37,46.58 
				8.1,48.81 10.44,48.81 8.54,50.17 9.26,52.39 7.37,51.02 5.48,52.39 6.22,50.17 4.33,48.81 6.64,48.81 			"/>
			<polygon style="clip-path:url(#SVGID_00000101065424739607011940000016801414091858182588_);fill:#FFFFFF;" points="14.2,12.57 
				14.89,14.79 17.24,14.79 15.36,16.17 16.07,18.38 14.2,17.01 12.32,18.38 13.02,16.17 11.14,14.79 13.48,14.79 			"/>
			<polygon style="clip-path:url(#SVGID_00000101065424739607011940000016801414091858182588_);fill:#FFFFFF;" points="14.2,22.37 
				14.89,24.58 17.24,24.58 15.36,25.95 16.07,28.17 14.2,26.81 12.32,28.17 13.02,25.95 11.14,24.58 13.48,24.58 			"/>
			<polygon style="clip-path:url(#SVGID_00000101065424739607011940000016801414091858182588_);fill:#FFFFFF;" points="14.2,32.16 
				14.89,34.38 17.24,34.38 15.36,35.75 16.07,37.96 14.2,36.59 12.32,37.96 13.02,35.75 11.14,34.38 13.48,34.38 			"/>
			<polygon style="clip-path:url(#SVGID_00000101065424739607011940000016801414091858182588_);fill:#FFFFFF;" points="14.2,41.96 
				14.89,44.17 17.24,44.17 15.36,45.54 16.07,47.75 14.2,46.38 12.32,47.75 13.02,45.54 11.14,44.17 13.48,44.17 			"/>
			<polygon style="clip-path:url(#SVGID_00000101065424739607011940000016801414091858182588_);fill:#FFFFFF;" points="21.09,7.41 
				21.81,9.63 24.15,9.63 22.26,11 22.99,13.22 21.09,11.85 19.22,13.22 19.93,11 18.04,9.63 20.37,9.63 			"/>
			<polygon style="clip-path:url(#SVGID_00000101065424739607011940000016801414091858182588_);fill:#FFFFFF;" points="21.09,17.21 
				21.81,19.42 24.15,19.42 22.26,20.79 22.99,23.01 21.09,21.64 19.22,23.01 19.93,20.79 18.04,19.42 20.37,19.42 			"/>
			<polygon style="clip-path:url(#SVGID_00000101065424739607011940000016801414091858182588_);fill:#FFFFFF;" points="21.09,27 
				21.81,29.21 24.15,29.21 22.26,30.58 22.99,32.81 21.09,31.43 19.22,32.81 19.93,30.58 18.04,29.21 20.37,29.21 			"/>
			<polygon style="clip-path:url(#SVGID_00000101065424739607011940000016801414091858182588_);fill:#FFFFFF;" points="21.09,36.79 
				21.81,39.01 24.15,39.01 22.26,40.38 22.99,42.59 21.09,41.23 19.22,42.59 19.93,40.38 18.04,39.01 20.37,39.01 			"/>
			<polygon style="clip-path:url(#SVGID_00000101065424739607011940000016801414091858182588_);fill:#FFFFFF;" points="21.09,46.58 
				21.81,48.81 24.15,48.81 22.26,50.17 22.99,52.39 21.09,51.02 19.22,52.39 19.93,50.17 18.04,48.81 20.37,48.81 			"/>
			<polygon style="clip-path:url(#SVGID_00000101065424739607011940000016801414091858182588_);fill:#FFFFFF;" points="27.91,12.57 
				28.63,14.79 30.98,14.79 29.08,16.17 29.8,18.38 27.91,17.01 26.03,18.38 26.76,16.17 24.86,14.79 27.2,14.79 			"/>
			<polygon style="clip-path:url(#SVGID_00000101065424739607011940000016801414091858182588_);fill:#FFFFFF;" points="27.91,22.37 
				28.63,24.58 30.98,24.58 29.08,25.95 29.8,28.17 27.91,26.81 26.03,28.17 26.76,25.95 24.86,24.58 27.2,24.58 			"/>
			<polygon style="clip-path:url(#SVGID_00000101065424739607011940000016801414091858182588_);fill:#FFFFFF;" points="27.91,32.16 
				28.63,34.38 30.98,34.38 29.08,35.75 29.8,37.96 27.91,36.59 26.03,37.96 26.76,35.75 24.86,34.38 27.2,34.38 			"/>
			<polygon style="clip-path:url(#SVGID_00000101065424739607011940000016801414091858182588_);fill:#FFFFFF;" points="27.91,41.96 
				28.63,44.17 30.98,44.17 29.08,45.54 29.8,47.75 27.91,46.38 26.03,47.75 26.76,45.54 24.86,44.17 27.2,44.17 			"/>
			<polygon style="clip-path:url(#SVGID_00000101065424739607011940000016801414091858182588_);fill:#FFFFFF;" points="34.83,7.41 
				35.55,9.63 37.87,9.63 35.98,11 36.73,13.22 34.83,11.85 32.93,13.22 33.65,11 31.78,9.63 34.11,9.63 			"/>
			<polygon style="clip-path:url(#SVGID_00000101065424739607011940000016801414091858182588_);fill:#FFFFFF;" points="34.83,17.21 
				35.55,19.42 37.87,19.42 35.98,20.79 36.73,23.01 34.83,21.64 32.93,23.01 33.65,20.79 31.78,19.42 34.11,19.42 			"/>
			<polygon style="clip-path:url(#SVGID_00000101065424739607011940000016801414091858182588_);fill:#FFFFFF;" points="34.83,27 
				35.55,29.21 37.87,29.21 35.98,30.58 36.73,32.81 34.83,31.43 32.93,32.81 33.65,30.58 31.78,29.21 34.11,29.21 			"/>
			<polygon style="clip-path:url(#SVGID_00000101065424739607011940000016801414091858182588_);fill:#FFFFFF;" points="34.83,36.79 
				35.55,39.01 37.87,39.01 35.98,40.38 36.73,42.59 34.83,41.23 32.93,42.59 33.65,40.38 31.78,39.01 34.11,39.01 			"/>
			<polygon style="clip-path:url(#SVGID_00000101065424739607011940000016801414091858182588_);fill:#FFFFFF;" points="34.83,46.58 
				35.55,48.81 37.87,48.81 35.98,50.17 36.73,52.39 34.83,51.02 32.93,52.39 33.65,50.17 31.78,48.81 34.11,48.81 			"/>
			<polygon style="clip-path:url(#SVGID_00000101065424739607011940000016801414091858182588_);fill:#FFFFFF;" points="41.65,12.57 
				42.37,14.79 44.69,14.79 42.81,16.17 43.52,18.38 41.65,17.01 39.77,18.38 40.48,16.17 38.6,14.79 40.92,14.79 			"/>
			<polygon style="clip-path:url(#SVGID_00000101065424739607011940000016801414091858182588_);fill:#FFFFFF;" points="41.65,22.37 
				42.37,24.58 44.69,24.58 42.81,25.95 43.52,28.17 41.65,26.81 39.77,28.17 40.48,25.95 38.6,24.58 40.92,24.58 			"/>
			<polygon style="clip-path:url(#SVGID_00000101065424739607011940000016801414091858182588_);fill:#FFFFFF;" points="41.65,32.16 
				42.37,34.38 44.69,34.38 42.81,35.75 43.52,37.96 41.65,36.59 39.77,37.96 40.48,35.75 38.6,34.38 40.92,34.38 			"/>
			<polygon style="clip-path:url(#SVGID_00000101065424739607011940000016801414091858182588_);fill:#FFFFFF;" points="41.65,41.96 
				42.37,44.17 44.69,44.17 42.81,45.54 43.52,47.75 41.65,46.38 39.77,47.75 40.48,45.54 38.6,44.17 40.92,44.17 			"/>
			<polygon style="clip-path:url(#SVGID_00000101065424739607011940000016801414091858182588_);fill:#FFFFFF;" points="48.54,7.41 
				49.27,9.63 51.6,9.63 49.72,11 50.44,13.22 48.54,11.85 46.67,13.22 47.38,11 45.5,9.63 47.82,9.63 			"/>
			<polygon style="clip-path:url(#SVGID_00000101065424739607011940000016801414091858182588_);fill:#FFFFFF;" points="48.54,17.21 
				49.27,19.42 51.6,19.42 49.72,20.79 50.44,23.01 48.54,21.64 46.67,23.01 47.38,20.79 45.5,19.42 47.82,19.42 			"/>
			<polygon style="clip-path:url(#SVGID_00000101065424739607011940000016801414091858182588_);fill:#FFFFFF;" points="48.54,27 
				49.27,29.21 51.6,29.21 49.72,30.58 50.44,32.81 48.54,31.43 46.67,32.81 47.38,30.58 45.5,29.21 47.82,29.21 			"/>
			<polygon style="clip-path:url(#SVGID_00000101065424739607011940000016801414091858182588_);fill:#FFFFFF;" points="48.54,36.79 
				49.27,39.01 51.6,39.01 49.72,40.38 50.44,42.59 48.54,41.23 46.67,42.59 47.38,40.38 45.5,39.01 47.82,39.01 			"/>
			<polygon style="clip-path:url(#SVGID_00000101065424739607011940000016801414091858182588_);fill:#FFFFFF;" points="48.54,46.58 
				49.27,48.81 51.6,48.81 49.72,50.17 50.44,52.39 48.54,51.02 46.67,52.39 47.38,50.17 45.5,48.81 47.82,48.81 			"/>
			<polygon style="clip-path:url(#SVGID_00000101065424739607011940000016801414091858182588_);fill:#FFFFFF;" points="55.37,12.57 
				56.08,14.79 58.43,14.79 56.54,16.17 57.26,18.38 55.37,17.01 53.49,18.38 54.22,16.17 52.32,14.79 54.66,14.79 			"/>
			<polygon style="clip-path:url(#SVGID_00000101065424739607011940000016801414091858182588_);fill:#FFFFFF;" points="55.37,22.37 
				56.08,24.58 58.43,24.58 56.54,25.95 57.26,28.17 55.37,26.81 53.49,28.17 54.22,25.95 52.32,24.58 54.66,24.58 			"/>
			<polygon style="clip-path:url(#SVGID_00000101065424739607011940000016801414091858182588_);fill:#FFFFFF;" points="55.37,32.16 
				56.08,34.38 58.43,34.38 56.54,35.75 57.26,37.96 55.37,36.59 53.49,37.96 54.22,35.75 52.32,34.38 54.66,34.38 			"/>
			<polygon style="clip-path:url(#SVGID_00000101065424739607011940000016801414091858182588_);fill:#FFFFFF;" points="55.37,41.96 
				56.08,44.17 58.43,44.17 56.54,45.54 57.26,47.75 55.37,46.38 53.49,47.75 54.22,45.54 52.32,44.17 54.66,44.17 			"/>
			<polygon style="clip-path:url(#SVGID_00000101065424739607011940000016801414091858182588_);fill:#FFFFFF;" points="62.28,7.41 
				63.01,9.63 65.33,9.63 63.45,11 64.16,13.22 62.28,11.85 60.41,13.22 61.12,11 59.24,9.63 61.56,9.63 			"/>
			<polygon style="clip-path:url(#SVGID_00000101065424739607011940000016801414091858182588_);fill:#FFFFFF;" points="62.28,17.21 
				63.01,19.42 65.33,19.42 63.45,20.79 64.16,23.01 62.28,21.64 60.41,23.01 61.12,20.79 59.24,19.42 61.56,19.42 			"/>
			<polygon style="clip-path:url(#SVGID_00000101065424739607011940000016801414091858182588_);fill:#FFFFFF;" points="62.28,27 
				63.01,29.21 65.33,29.21 63.45,30.58 64.16,32.81 62.28,31.43 60.41,32.81 61.12,30.58 59.24,29.21 61.56,29.21 			"/>
			<polygon style="clip-path:url(#SVGID_00000101065424739607011940000016801414091858182588_);fill:#FFFFFF;" points="62.28,36.79 
				63.01,39.01 65.33,39.01 63.45,40.38 64.16,42.59 62.28,41.23 60.41,42.59 61.12,40.38 59.24,39.01 61.56,39.01 			"/>
			<polygon style="clip-path:url(#SVGID_00000101065424739607011940000016801414091858182588_);fill:#FFFFFF;" points="62.28,46.58 
				63.01,48.81 65.33,48.81 63.45,50.17 64.16,52.39 62.28,51.02 60.41,52.39 61.12,50.17 59.24,48.81 61.56,48.81 			"/>
			<polygon style="clip-path:url(#SVGID_00000101065424739607011940000016801414091858182588_);fill:#FFFFFF;" points="69.11,12.57 
				69.81,14.79 72.15,14.79 70.28,16.17 70.98,18.38 69.11,17.01 67.2,18.38 67.93,16.17 66.06,14.79 68.38,14.79 			"/>
			<polygon style="clip-path:url(#SVGID_00000101065424739607011940000016801414091858182588_);fill:#FFFFFF;" points="69.11,22.37 
				69.81,24.58 72.15,24.58 70.28,25.95 70.98,28.17 69.11,26.81 67.2,28.17 67.93,25.95 66.06,24.58 68.38,24.58 			"/>
			<polygon style="clip-path:url(#SVGID_00000101065424739607011940000016801414091858182588_);fill:#FFFFFF;" points="69.11,32.16 
				69.81,34.38 72.15,34.38 70.28,35.75 70.98,37.96 69.11,36.59 67.2,37.96 67.93,35.75 66.06,34.38 68.38,34.38 			"/>
			<polygon style="clip-path:url(#SVGID_00000101065424739607011940000016801414091858182588_);fill:#FFFFFF;" points="69.11,41.96 
				69.81,44.17 72.15,44.17 70.28,45.54 70.98,47.75 69.11,46.38 67.2,47.75 67.93,45.54 66.06,44.17 68.38,44.17 			"/>
			<polygon style="clip-path:url(#SVGID_00000101065424739607011940000016801414091858182588_);fill:#FFFFFF;" points="76,7.41 
				76.74,9.63 79.05,9.63 77.17,11 77.9,13.22 76,11.85 74.13,13.22 74.83,11 72.95,9.63 75.28,9.63 			"/>
			<polygon style="clip-path:url(#SVGID_00000101065424739607011940000016801414091858182588_);fill:#FFFFFF;" points="76,17.21 
				76.74,19.42 79.05,19.42 77.17,20.79 77.9,23.01 76,21.64 74.13,23.01 74.83,20.79 72.95,19.42 75.28,19.42 			"/>
			<polygon style="clip-path:url(#SVGID_00000101065424739607011940000016801414091858182588_);fill:#FFFFFF;" points="76,27 
				76.74,29.21 79.05,29.21 77.17,30.58 77.9,32.81 76,31.43 74.13,32.81 74.83,30.58 72.95,29.21 75.28,29.21 			"/>
			<polygon style="clip-path:url(#SVGID_00000101065424739607011940000016801414091858182588_);fill:#FFFFFF;" points="76,36.79 
				76.74,39.01 79.05,39.01 77.17,40.38 77.9,42.59 76,41.23 74.13,42.59 74.83,40.38 72.95,39.01 75.28,39.01 			"/>
			<polygon style="clip-path:url(#SVGID_00000101065424739607011940000016801414091858182588_);fill:#FFFFFF;" points="76,46.58 
				76.74,48.81 79.05,48.81 77.17,50.17 77.9,52.39 76,51.02 74.13,52.39 74.83,50.17 72.95,48.81 75.28,48.81 			"/>
		</g>
	</g>
</g>
</svg>
